<?xml version="1.0" encoding="utf-8"?>
<!-- Generator: Adobe Illustrator 17.0.0, SVG Export Plug-In . SVG Version: 6.00 Build 0)  -->
<!DOCTYPE svg PUBLIC "-//W3C//DTD SVG 1.1//EN" "http://www.w3.org/Graphics/SVG/1.1/DTD/svg11.dtd">
<svg version="1.1" id="Layer_1" xmlns="http://www.w3.org/2000/svg" xmlns:xlink="http://www.w3.org/1999/xlink" x="0px" y="0px"
	 width="100%" height="auto" viewBox="0 0 75 75" enable-background="new 0 0 75 75" xml:space="preserve">
<g>
	<g>
		<linearGradient id="SVGID_1_" gradientUnits="userSpaceOnUse" x1="19.5408" y1="11.8474" x2="23.7099" y2="11.8474">
			<stop  offset="0" style="stop-color:#F65314"/>
			<stop  offset="1" style="stop-color:#EA4335"/>
		</linearGradient>
		<path fill="url(#SVGID_1_)" d="M22.36,11.847c0-1.009,0.543-1.888,1.35-2.37c-0.413-0.246-0.894-0.39-1.409-0.39
			c-1.524,0-2.76,1.236-2.76,2.76c0,1.524,1.236,2.76,2.76,2.76c0.516,0,0.996-0.144,1.409-0.39
			C22.902,13.736,22.36,12.856,22.36,11.847z"/>
			</g>
	<g>
		<linearGradient id="SVGID_2_" gradientUnits="userSpaceOnUse" x1="11.6927" y1="32.2835" x2="15.8618" y2="32.2835">
			<stop  offset="0" style="stop-color:#FFBB00"/>
			<stop  offset="1" style="stop-color:#FBBC05"/>
		</linearGradient>
		<path fill="url(#SVGID_2_)" d="M14.511,32.283c0-1.009,0.543-1.888,1.35-2.37c-0.413-0.246-0.894-0.39-1.409-0.39
			c-1.524,0-2.76,1.236-2.76,2.76c0,1.524,1.236,2.76,2.76,2.76c0.516,0,0.996-0.144,1.409-0.39
			C15.054,34.172,14.511,33.292,14.511,32.283z"/>
	</g>
	<g>
		<linearGradient id="SVGID_3_" gradientUnits="userSpaceOnUse" x1="15.0935" y1="52.4847" x2="19.2627" y2="52.4847">
			<stop  offset="0" style="stop-color:#00A1F1"/>
			<stop  offset="0.1027" style="stop-color:#079EF1"/>
			<stop  offset="1" style="stop-color:#4285F4"/>
		</linearGradient>
		<path fill="url(#SVGID_3_)" d="M17.912,52.485c0-1.009,0.543-1.888,1.35-2.37c-0.413-0.246-0.894-0.39-1.409-0.39
			c-1.524,0-2.76,1.236-2.76,2.76c0,1.524,1.236,2.76,2.76,2.76c0.516,0,0.996-0.144,1.409-0.39
			C18.455,54.373,17.912,53.493,17.912,52.485z"/>
	</g>
	<g>
		<path fill="#AFAFAF" d="M23.987,68.049v-6.577h1.879c0.513,0,0.955,0.185,1.325,0.554c0.369,0.37,0.554,0.811,0.554,1.325
			c0,0.564-0.251,1.034-0.752,1.409c0.501,0.376,0.752,0.846,0.752,1.409c0,0.514-0.185,0.955-0.554,1.325
			c-0.37,0.37-0.811,0.554-1.325,0.554H23.987z M24.926,64.29h0.94c0.257,0,0.478-0.092,0.662-0.277
			c0.185-0.185,0.277-0.405,0.277-0.662c0-0.257-0.093-0.478-0.277-0.662c-0.185-0.185-0.406-0.277-0.662-0.277h-0.94V64.29z
			 M24.926,67.109h0.94c0.257,0,0.478-0.092,0.662-0.277c0.185-0.185,0.277-0.405,0.277-0.662c0-0.257-0.093-0.478-0.277-0.662
			c-0.185-0.185-0.406-0.277-0.662-0.277h-0.94V67.109z"/>
		<path fill="#AFAFAF" d="M35.365,67.588c-0.37,0.37-0.811,0.554-1.325,0.554c-0.514,0-0.955-0.185-1.325-0.554
			c-0.37-0.37-0.554-0.811-0.554-1.325v-3.007c0-0.514,0.185-0.955,0.554-1.325c0.37-0.37,0.811-0.554,1.325-0.554
			c0.513,0,0.955,0.185,1.325,0.554c0.369,0.37,0.554,0.811,0.554,1.325v3.007C35.919,66.777,35.734,67.219,35.365,67.588z
			 M33.378,66.926c0.185,0.185,0.406,0.277,0.662,0.277c0.257,0,0.478-0.092,0.662-0.277c0.185-0.185,0.277-0.406,0.277-0.662
			v-3.007c0-0.257-0.093-0.478-0.277-0.662c-0.185-0.185-0.406-0.277-0.662-0.277c-0.257,0-0.478,0.092-0.662,0.277
			c-0.185,0.185-0.277,0.406-0.277,0.662v3.007C33.101,66.52,33.193,66.741,33.378,66.926z"/>
		<path fill="#AFAFAF" d="M41.181,68.049v-5.638h-1.409v-0.94h3.758v0.94h-1.409v5.638H41.181z"/>
	</g>
	<g>
		<path fill="#F65314" d="M22.36,11.847c0-1.009,0.543-1.888,1.35-2.37c-0.413-0.246-0.894-0.39-1.409-0.39
			c-1.524,0-2.76,1.236-2.76,2.76c0,1.524,1.236,2.76,2.76,2.76c0.516,0,0.996-0.144,1.409-0.39
			C22.902,13.736,22.36,12.856,22.36,11.847z"/>
	</g>
	<g>
		<path fill="#FFCD05" d="M14.511,32.283c0-1.009,0.543-1.888,1.35-2.37c-0.413-0.246-0.894-0.39-1.409-0.39
			c-1.524,0-2.76,1.236-2.76,2.76c0,1.524,1.236,2.76,2.76,2.76c0.516,0,0.996-0.144,1.409-0.39
			C15.054,34.172,14.511,33.292,14.511,32.283z"/>
	</g>
	<g>
		<path fill="#00A1F1" d="M17.912,52.485c0-1.009,0.543-1.888,1.35-2.37c-0.413-0.246-0.894-0.39-1.409-0.39
			c-1.524,0-2.76,1.236-2.76,2.76c0,1.524,1.236,2.76,2.76,2.76c0.516,0,0.996-0.144,1.409-0.39
			C18.455,54.373,17.912,53.493,17.912,52.485z"/>
	</g>
	<path fill="#F65314" d="M64.895,48.288C62.324,44.727,60,40.564,60,36.052v0.031C58,20.91,45.999,8.938,30.542,8.938l-3.618,0.003
		c-1.605,0-2.922,1.195-2.922,2.8s1.294,2.973,2.899,2.973l0,0c3.975,0,7.137,3.316,7.137,7.291c0,0.893-0.166,1.755-0.464,2.544
		c13.866,3.301,24.092,15.8,24.092,30.668c0,6.161-2.781,12.812-2.781,12.812s0.035-0.079,0,0c2.812-4.259,4.696-9.166,4.953-14.589
		c0.596,0.421,1.325,0.668,2.111,0.668c2.024,0,3.656-1.64,3.656-3.664C65.605,49.638,65.336,48.893,64.895,48.288z"/>
	<path fill="#FFCD05" d="M27.416,29.193c-0.052,0-0.103-0.002-0.155-0.002l-8.192,0.004c-1.618,0-2.93,1.312-2.93,2.93
		c0,1.618,1.312,2.93,2.93,2.93l7.984,0.003c3.856,0,6.801,3.071,6.973,6.884c11.012,3.802,19.373,13.779,20.86,26.086
		c1.721-3.863,2.762-8.308,2.78-12.808c0.059-14.868-10.227-27.362-24.093-30.664C32.611,27.107,30.244,28.968,27.416,29.193z"/>
	<path fill="#00A1F1" d="M34.026,41.943c0.005,0.117,0.008,0.344,0.008,0.463c0,3.778-2.911,6.594-6.612,7.594h-4.95
		c-1.619,0-2.932,1.046-2.932,2.666c0,1.619,1.313,2.629,2.932,2.629l8.087-0.174c10.132,0,19.061,5.114,24.327,12.929
		c0.002-0.005,0.006-0.015,0.01-0.021c0.012-0.018-0.014,0.032,0,0C53.408,55.721,45.037,45.745,34.026,41.943z"/>
</g>
</svg>
